<svg width="32" height="32" viewBox="0 0 32 32" fill="none" xmlns="http://www.w3.org/2000/svg">
<rect x="0.5" y="0.5" width="31" height="31" rx="15.5" stroke="white"/>
<path d="M10 15.3333C10 12.8193 10 11.562 10.7813 10.7813C11.562 10 12.8193 10 15.3333 10H16.6667C19.1807 10 20.438 10 21.2187 10.7813C22 11.562 22 12.8193 22 15.3333V16.6667C22 19.1807 22 20.438 21.2187 21.2187C20.438 22 19.1807 22 16.6667 22H15.3333C12.8193 22 11.562 22 10.7813 21.2187C10 20.438 10 19.1807 10 16.6667V15.3333Z" stroke="white" stroke-width="1.33333"/>
<path d="M19 14C19.5523 14 20 13.5523 20 13C20 12.4477 19.5523 12 19 12C18.4477 12 18 12.4477 18 13C18 13.5523 18.4477 14 19 14Z" fill="white"/>
<path d="M16 18C17.1046 18 18 17.1046 18 16C18 14.8954 17.1046 14 16 14C14.8954 14 14 14.8954 14 16C14 17.1046 14.8954 18 16 18Z" stroke="white" stroke-width="1.33333"/>
</svg>
